# xmcd CD database file
#
# Track frame offsets:
#	150
#	22065
#	42300
#
# Disc length: 852 seconds
#
# Revision: 2
# Processed by: cddbd v1.5.1PL2 Copyright (c) Steve Scherf et al.
# Submitted via: CDex 1.51
#
DISCID=20035203
DTITLE=TIA - ずっと ずっと・・・
DYEAR=2006
DGENRE=JPop
TTITLE0=ずっと ずっと・・・
TTITLE1=ちいさな手
TTITLE2=ずっと ずっと・・・(Instrumental)
EXTD=YEAR: 2006/03/24
EXTT0=
EXTT1=
EXTT2=
PLAYORDER=
